<?xml version="1.0" standalone="no"?>
<!DOCTYPE svg PUBLIC "-//W3C//DTD SVG 20010904//EN"
 "http://www.w3.org/TR/2001/REC-SVG-20010904/DTD/svg10.dtd">
<svg version="1.0" xmlns="http://www.w3.org/2000/svg"
 width="500.000000pt" height="500.000000pt" viewBox="0 0 500.000000 500.000000"
 preserveAspectRatio="xMidYMid meet">
<metadata>
Created by potrace 1.14, written by Peter Selinger 2001-2017
</metadata>
<g transform="translate(0.000000,500.000000) scale(0.100000,-0.100000)"
fill="#000000" stroke="none">
<path d="M1850 3743 l0 -113 70 0 c67 0 71 -1 80 -26 6 -15 13 -59 16 -98 l6
-71 -70 -48 c-174 -121 -341 -340 -403 -532 -7 -22 -17 -44 -21 -49 -4 -5 -3
6 3 25 22 71 31 104 29 104 -1 0 3 13 9 29 26 66 10 210 -27 256 -17 21 -17
20 -17 -52 0 -54 -9 -105 -36 -198 -20 -69 -39 -145 -42 -169 -5 -44 15 -134
35 -158 9 -11 4 -90 -6 -100 -2 -3 -7 6 -11 19 -15 45 -84 127 -163 192 -61
50 -70 45 -28 -14 56 -78 83 -137 120 -264 35 -117 40 -128 82 -176 21 -24 38
-80 25 -80 -4 0 -14 12 -23 28 -9 15 -49 63 -87 107 -39 44 -71 83 -71 87 0 5
-4 8 -10 8 -18 0 -10 -30 34 -124 55 -118 105 -191 196 -289 40 -42 68 -77 63
-77 -6 0 -18 9 -29 21 -24 27 -130 86 -169 94 -16 4 -48 9 -70 12 -47 6 -57
18 103 -131 99 -91 189 -149 251 -161 14 -2 58 -40 100 -84 155 -162 399 -299
580 -326 20 -3 60 -9 90 -14 79 -13 264 -6 352 13 303 65 553 234 723 490 32
48 56 90 52 93 -3 4 -7 4 -9 2 -2 -2 -30 -44 -62 -93 -160 -243 -420 -416
-720 -478 -83 -17 -302 -18 -385 -2 -234 44 -432 148 -592 309 -104 105 -121
134 -119 202 1 32 5 84 10 117 11 80 6 166 -13 223 -18 51 -28 66 -64 98 l-23
19 7 -49 c9 -68 11 -356 2 -342 -5 7 -26 59 -49 116 -47 120 -47 126 10 241
62 123 68 145 86 305 1 17 1 34 -2 38 -14 23 -93 -127 -124 -235 -29 -100 -36
-95 -39 34 -3 84 30 136 150 238 127 109 173 175 188 273 10 63 -5 77 -20 19
-5 -19 -31 -53 -65 -84 -31 -29 -95 -90 -142 -135 -47 -46 -86 -81 -88 -79 -7
7 66 215 97 277 43 84 156 235 223 295 58 53 165 134 177 134 4 0 6 -296 5
-657 -2 -659 -6 -746 -38 -771 -7 -5 -39 -9 -72 -9 l-60 1 -3 -111 c-2 -99 -1
-111 15 -114 10 -2 171 -4 358 -4 l340 1 5 49 5 49 340 0 c263 0 341 3 345 13
3 7 5 67 4 135 l-1 123 -58 0 -58 0 -3 -35 c-5 -59 -42 -77 -209 -105 -45 -8
-189 -13 -198 -8 -7 4 22 59 46 88 18 22 547 862 547 869 0 1 -22 2 -48 2
l-49 -1 1 85 1 85 -110 0 -110 0 -5 -50 c-5 -49 -6 -50 -40 -53 -21 -1 -76 12
-135 33 -187 67 -226 76 -315 76 -47 1 -94 -1 -104 -3 -19 -3 -19 6 -20 220
-1 123 2 228 5 234 15 23 294 33 394 13 132 -26 360 -118 395 -161 7 -8 18
-14 24 -14 16 0 128 -92 184 -152 113 -120 196 -262 247 -418 41 -126 37 -118
42 -98 6 22 -48 181 -88 260 -17 35 -51 92 -75 128 -45 67 -184 217 -241 261
l-32 24 84 -1 85 -1 0 231 0 231 -785 0 -785 0 0 -112z m1050 -128 c147 -27
289 -82 291 -114 1 -9 2 -28 3 -43 l3 -27 -77 40 c-90 45 -233 93 -341 112
-66 12 -245 15 -354 5 -29 -3 -39 11 -27 36 5 9 445 2 502 -9z m-1336 -570
c-2 -33 -15 -98 -29 -144 -34 -106 -37 -117 -42 -168 -6 -51 -19 -48 -28 5 -6
37 14 156 40 237 7 22 21 68 31 103 21 74 33 61 28 -33z m244 -122 c-23 -54
-82 -125 -152 -185 -82 -69 -118 -105 -134 -133 -9 -16 -11 -17 -12 -4 0 36
32 88 92 149 55 57 209 199 215 200 2 0 -3 -12 -9 -27z m668 -91 c29 -16 30
-20 30 -75 -1 -32 4 -62 9 -67 6 -4 33 -7 60 -6 44 1 50 4 50 23 0 12 2 24 6
27 3 3 39 -6 80 -21 55 -19 96 -26 161 -27 59 -1 84 -4 80 -12 -15 -24 -436
-689 -439 -693 -7 -10 -74 -7 -82 3 -25 33 -34 162 -34 521 -1 160 2 302 6
318 9 31 28 34 73 9z m-959 -84 c-3 -8 -6 -5 -6 6 -1 11 2 17 5 13 3 -3 4 -12
1 -19z m-118 -114 c51 -63 76 -136 85 -247 11 -124 -19 -81 -78 112 -19 61
-48 135 -64 165 -26 48 -27 53 -8 39 11 -9 41 -40 65 -69z m246 -36 c-5 -76
-29 -154 -76 -246 -46 -92 -49 -95 -43 -52 8 68 22 123 45 184 18 51 67 146
73 146 2 0 2 -15 1 -32z m-186 -353 c31 -44 70 -118 95 -180 l16 -40 -31 35
c-63 71 -122 157 -160 232 -21 43 -39 81 -39 85 1 11 84 -82 119 -132z m218 7
c12 -31 18 -74 18 -127 0 -85 -12 -215 -20 -223 -13 -14 -42 121 -38 178 6 90
5 219 -3 231 -6 12 -5 12 9 1 9 -8 24 -35 34 -60z m-212 -222 c33 -15 78 -43
101 -63 43 -38 130 -145 122 -152 -2 -2 -28 7 -58 21 -56 26 -118 72 -180 134
-20 19 -53 50 -74 69 l-39 33 34 -7 c19 -4 61 -19 94 -35z"/>
<path d="M3681 2636 c-16 -19 -6 -36 20 -36 15 0 20 6 17 22 -4 27 -21 33 -37
14z"/>
<path d="M3680 2437 c0 -19 20 -36 36 -30 8 3 14 14 14 24 0 14 -7 19 -25 19
-14 0 -25 -6 -25 -13z"/>
<path d="M3657 2246 c-7 -17 18 -40 33 -31 5 3 10 15 10 26 0 23 -35 27 -43 5z"/>
<path d="M3602 2068 c-13 -13 2 -38 23 -38 18 0 26 25 12 39 -14 14 -20 14
-35 -1z"/>
<path d="M1776 1092 c-7 -14 -4 -122 4 -117 4 3 7 18 6 35 -1 20 1 26 9 20 14
-11 55 -9 55 3 0 5 -10 7 -22 4 -28 -8 -47 8 -41 32 4 15 13 19 39 17 18 -2
31 0 29 4 -6 10 -74 11 -79 2z"/>
<path d="M1967 1087 c3 -5 18 -6 34 -3 37 7 36 -2 -6 -55 -19 -24 -35 -47 -35
-51 0 -5 24 -7 53 -6 l52 1 -43 6 -43 6 40 54 c23 30 41 56 41 57 0 1 -22 1
-49 1 -27 -1 -47 -6 -44 -10z"/>
<path d="M2306 1087 c-27 -20 -16 -49 22 -59 24 -6 32 -14 30 -26 -3 -13 -13
-16 -43 -15 -29 2 -36 0 -25 -7 45 -29 109 9 74 44 -8 9 -24 16 -34 16 -10 0
-22 5 -26 12 -10 16 22 37 49 32 21 -4 21 -4 2 5 -27 13 -29 13 -49 -2z"/>
<path d="M2470 1088 c0 -4 3 -7 8 -7 33 5 37 -2 34 -58 -2 -32 0 -54 5 -50 4
5 9 30 10 55 2 64 2 64 11 58 4 -2 14 -1 20 3 7 4 -10 8 -38 7 -27 0 -50 -3
-50 -8z"/>
<path d="M2761 1048 c-1 -60 -16 -77 -55 -62 -16 6 -18 14 -19 72 0 17 -4 32
-10 32 -15 0 -2 -101 14 -111 21 -13 55 -11 67 4 14 17 21 77 11 102 -5 13 -8
1 -8 -37z"/>
<path d="M2899 1095 c-5 -8 -5 -88 0 -117 2 -17 78 -8 96 12 21 23 23 67 4 85
-18 17 -66 27 -73 16 -3 -5 6 -8 19 -8 32 0 55 -20 55 -48 0 -29 -30 -55 -63
-55 -25 0 -26 2 -29 63 -2 34 -6 58 -9 52z"/>
<path d="M3129 1093 c-5 -38 -3 -106 3 -116 4 -7 8 18 8 56 0 37 -2 67 -5 67
-3 0 -5 -3 -6 -7z"/>
<path d="M3285 1088 c-41 -23 -47 -66 -15 -98 41 -41 111 -13 110 45 -1 45
-56 76 -95 53z m63 -18 c26 -25 27 -38 6 -68 -20 -30 -59 -29 -80 3 -19 29
-11 63 19 75 31 12 31 12 55 -10z"/>
</g>
</svg>
